PathFileType	4	(X/Y/Z)	C:/Users/beibeiliu/ov580/test_trc\sequence.37_training_dense_right.trc
DataRate	CameraRate	NumFrames	NumMarkers	Units	OrigDataRate	OrigDataStartFrame	OrigNumFrames
120	120	10	19	mm	120	68	269
Frame#	Time	ThumbCMC			ThumbMCP			ThumbIP			ThumbTip			IndexMCP			IndexPIP			IndexTip			MiddleMCP			MiddlePIP			MiddleTip			RingMCP			RingPIP			RingTip			PinkyMCP			PinkyPIP			PinkyTip			BackHand1			BackHand2			BackHand3	
		X0	Y0	Z0	X1	Y1	Z1	X2	Y2	Z2	X3	Y3	Z3	X4	Y4	Z4	X5	Y5	Z5	X6	Y6	Z6	X7	Y7	Z7	X8	Y8	Z8	X9	Y9	Z9	X10	Y10	Z10	X11	Y11	Z11	X12	Y12	Z12	X13	Y13	Z13	X14	Y14	Z14	X15	Y15	Z15	X16	Y16	Z16	X17	Y17	Z17	X18	Y18	Z18	
67	0.558333	271.984	-19.3706	90.9699	257.424	-16.1231	62.2912	251.193	-21.1197	38.7129	241.595	-24.0333	20.8066	286.149	-55.8184	37.0682	272.454	-45.4617	14.8276	249.861	-28.9726	24.7406	268.602	-63.1268	31.5833	247.23	-49.8631	21.7837	239.158	-33.1535	48.2945	249.955	-72.6276	43.4086	234.841	-49.5313	38.3087	237.354	-38.7328	64.0048	235.047	-78.0064	53.7646	228.791	-51.5296	51.5447	234.082	-43.6189	73.1505	264.767	-77.0333	91.4533	260.094	-69.3924	119.012	284.334	-53.3095	97.5796	
68	0.566667	268.306	-17.5058	100.299	254.881	-12.3147	73.7646	248.456	-10.2384	47.1621	238.418	-17.3322	28.9205	280.712	-52.1478	47.3421	266.85	-44.8661	23.4203	249.786	-21.2822	32.1891	260.764	-62.0741	38.7165	242.646	-44.5055	29.7282	235.886	-27.1467	56.9134	242.159	-67.2841	49.2102	231.331	-42.8282	45.8821	235.961	-32.0306	73.8451	230.235	-70.825	59.7542	224.232	-50.0793	55.8386	233.65	-38.3866	80.4334	259.832	-72.4534	98.6508	255.748	-66.8323	122.742	276.237	-55.0414	105.666	
69	0.575	264.252	-20.0891	106.247	252.334	-9.58634	81.4322	245.533	-9.78745	54.3678	234.908	-12.8691	39.4941	278.474	-46.9869	49.6827	263.683	-37.2207	29.8735	245.912	-16.4836	39.9437	258.812	-57.2327	47.4007	240.662	-37.7661	35.5222	231.116	-24.8167	65.1015	239.285	-63.107	57.1311	228.281	-39.2902	52.2931	227.497	-30.6395	81.0418	227.428	-65.2664	64.9052	215.622	-46.3932	63.8453	225.06	-35.4028	85.2125	253.634	-72.7957	102.855	253.961	-61.1621	131.997	273.04	-48.2183	115.451	
70	0.583333	260.247	-16.57	115.399	248.292	-7.62208	86.2502	242.713	-3.78306	61.6936	231.457	-10.4442	43.5435	271.962	-46.7178	55.0866	259.368	-33.641	36.037	241.785	-10.7807	50.5091	252.693	-57.0362	54.6511	238.479	-35.7453	40.4577	227.212	-21.7646	68.5693	237.33	-58.3941	62.8844	223.967	-36.1212	57.5556	227.355	-25.0053	84.391	223.674	-63.2493	70.3367	214.25	-40.4976	71.3175	224.234	-31.0485	88.9436	249.259	-69.61	107.363	249.624	-61.4886	133.563	270.773	-49.9144	119.648	
71	0.591667	258.527	-15.0123	119.808	247.919	-1.43644	93.1246	238.799	-5.81657	68.6565	227.248	-8.99537	47.7562	270.371	-43.4219	62.7951	252.568	-32.0246	42.9347	240.411	-10.0912	53.6129	251.521	-50.7928	57.0752	234.592	-32.6578	46.0436	229.37	-15.8162	76.9168	232.502	-55.3416	66.7228	217.322	-35.2623	64.9231	224.283	-23.1446	93.0204	218.828	-62.124	79.3385	212.879	-39.854	73.4629	219.989	-29.4742	93.7176	246.534	-68.5777	116.293	245.899	-58.1727	144.046	265.307	-45.2782	127.615	
72	0.6	256.145	-13.4292	128.612	245.013	-2.61462	96.3677	236.822	-4.20541	73.9946	224.561	-8.30048	55.5663	266.396	-42.7387	70.7182	249.785	-27.8377	47.8176	235.312	-8.38005	63.2048	247.839	-49.7238	63.5667	228.58	-30.6402	53.0996	225.901	-14.3236	79.237	231.132	-54.1749	72.9762	218.809	-28.9075	69.828	219.012	-22.3938	97.4274	218.063	-59.6936	84.313	211.103	-34.8128	80.8389	217.196	-26.2322	104.337	243.675	-66.5078	120.55	242.392	-60.8128	143.914	265.518	-45.0097	127.908	
73	0.608333	254.451	-13.1516	129.127	243.08	2.78711	102.033	233.3	-1.52299	80.2174	223.314	-5.25946	61.2099	265.45	-39.4485	72.8891	252.642	-23.568	51.9662	235.328	-4.9267	64.8371	247.255	-47.4161	67.9434	229.576	-30.0935	56.3007	223.752	-12.7657	83.6746	230.28	-51.9312	77.2583	212.841	-28.2712	73.5996	217.164	-20.2116	100.616	214.045	-57.7905	88.0766	204.655	-34.3438	85.4306	215.325	-23.8028	109.126	242.394	-62.4263	121.725	240.671	-56.7589	150.511	262.128	-42.6021	135.218	
74	0.616667	251.149	-10.8772	133.49	239.646	0.347052	104.15	231.854	0.939977	84.2093	220.524	-4.49113	64.7064	263.426	-37.0328	76.1742	248.379	-22.0697	54.7799	230.995	-5.99086	69.4204	245.064	-44.832	70.6151	225.003	-26.7957	60.8672	219.013	-11.99	87.1007	227.911	-51.3186	80.1001	211.322	-25.1381	78.6405	214.218	-17.5318	101.177	212.528	-56.0911	90.2882	204.397	-30.5313	88.8274	215.923	-23.3891	110.771	238.754	-63.516	123.799	238.381	-55.4667	153.962	261.096	-43.3252	134.718	
75	0.625	250.409	-9.10767	134.862	239.349	5.07383	108.858	231.563	5.95662	86.9519	220.319	0.845865	62.6448	261.949	-34.5913	76.1179	247.645	-20.462	57.8453	232.601	-0.0992188	72.0359	246.697	-42.9209	74.9976	226.44	-21.7923	61.7124	220.702	-9.16253	92.7338	224.035	-47.2496	77.6984	213.495	-25.4942	75.9813	213.912	-16.5482	103.685	211.535	-54.9311	92.0469	201.867	-32.1289	87.8517	211.852	-21.1334	112.555	237.105	-62.4989	125.797	235.743	-54.4702	154.413	261.365	-41.81	137.378	
76	0.633333	249.61	-7.94849	137.708	239.313	5.01074	105.712	230.866	6.06492	86.4974	220.481	5.97547	64.6977	260.484	-35.3546	80.802	250.211	-17.4459	58.2784	229.509	1.15424	76.5718	245.211	-40.7408	73.6815	224.887	-20.5589	62.257	220.612	-6.42434	89.6242	226.577	-45.1881	81.0006	211.254	-20.4258	78.7938	213.462	-14.1503	104.154	211.986	-51.2111	91.6054	202.958	-28.9517	87.3335	214.407	-18.4518	111.807	236.036	-57.7937	130.241	234.184	-57.4641	152.859	256.552	-40.9515	142.842	
